<?xml version="1.0" encoding="utf-8"?>
<!-- Generator: Adobe Illustrator 20.1.0, SVG Export Plug-In . SVG Version: 6.00 Build 0)  -->
<svg version="1.1" id="Слой_1" xmlns="http://www.w3.org/2000/svg" xmlns:xlink="http://www.w3.org/1999/xlink" x="0px" y="0px"
	 viewBox="0 0 98.6 88.7" enable-background="new 0 0 98.6 88.7" xml:space="preserve">
<g>
	<g>
		<polyline fill="none" stroke="#FFFFFF" stroke-width="3" stroke-miterlimit="10" points="62.3,63.7 2.4,63.7 2.4,5.3 7.8,5.3
			"/>
		<polyline fill="none" stroke="#FFFFFF" stroke-width="3" stroke-miterlimit="10" points="79.6,5.3 85.1,5.3 85.1,26.4 		"/>
		<g>
			<path fill="none" stroke="#FFFFFF" stroke-width="3" stroke-miterlimit="10" d="M38,1.8H7.8v56H38c3.3,0,5.9,2.6,5.9,5.9v-56
				C43.9,4.4,41.3,1.8,38,1.8z"/>
			<path fill="none" stroke="#FFFFFF" stroke-width="3" stroke-miterlimit="10" d="M58.5,57.8h-9c-3.3,0-5.9,2.6-5.9,5.9v-56
				c0-3.3,2.6-5.9,5.9-5.9h30.2v22.7"/>
		</g>
		<g>
			<line fill="none" stroke="#FFFFFF" stroke-width="3" stroke-miterlimit="10" x1="13.8" y1="10.5" x2="27.9" y2="10.5"/>
			<line fill="none" stroke="#FFFFFF" stroke-width="3" stroke-miterlimit="10" x1="13.8" y1="18.2" x2="37.5" y2="18.2"/>
			<line fill="none" stroke="#FFFFFF" stroke-width="3" stroke-miterlimit="10" x1="13.8" y1="24.7" x2="37.5" y2="24.7"/>
			<line fill="none" stroke="#FFFFFF" stroke-width="3" stroke-miterlimit="10" x1="13.8" y1="31.3" x2="30.7" y2="31.3"/>
		</g>
	</g>
	<g>
		<g>
			<path fill="none" d="M55.1,44.9c0-11.5,9.3-20.8,20.8-20.8c11.5,0,20.8,9.3,20.8,20.8c0,0.7-0.5,10.3-8.3,20.4
				c-2.3,3-1.9,9.2-1.9,9.2c-3.2,0-5.9,0-9.1,0c-1,0-2,0-3,0c-3.2,0-5.9,0-9.1,0c0,0,0.4-6.1-1.8-9.2C55.5,55.2,55.1,45.5,55.1,44.9
				z"/>
			<path fill="none" stroke="#FFFFFF" stroke-width="3" stroke-miterlimit="10" d="M65.2,73.5c0,0,0.4-5.2-1.8-8.2
				c-7.8-10.1-8.3-19.7-8.3-20.4c0-11.5,9.3-20.8,20.8-20.8c11.5,0,20.8,9.3,20.8,20.8c0,0.7-0.5,10.3-8.3,20.4
				c-2.3,3-1.9,8.2-1.9,8.2"/>
			<g>
				<line fill="none" stroke="#FFFFFF" stroke-width="3" x1="70.6" y1="74.3" x2="66.7" y2="50.2"/>
				<line fill="none" stroke="#FFFFFF" stroke-width="3" x1="81.1" y1="74.3" x2="85" y2="50.2"/>
			</g>
			<polyline fill="none" stroke="#FFFFFF" stroke-width="3" points="67,51.1 68.8,53 70.6,51.1 72.4,53 74.2,51.1 76,53 77.8,51.1
				79.6,53 81.4,51.1 83.2,53 85,51.1 			"/>
			<path fill="none" stroke="#FFFFFF" stroke-width="3" stroke-linecap="round" stroke-linejoin="bevel" stroke-miterlimit="10" d="
				M87.8,79c0-0.8-0.5-1.5-1.3-1.7c0.7-0.2,1.3-0.9,1.3-1.7c0-0.9-0.8-1.7-1.7-1.7h-3.5H69.1h-3.5c-0.9,0-1.7,0.8-1.7,1.7
				c0,0.8,0.5,1.5,1.3,1.7c-0.7,0.2-1.3,0.9-1.3,1.7c0,0.8,0.5,1.5,1.3,1.7c-0.7,0.2-1.3,0.9-1.3,1.7c0,0.9,0.8,1.7,1.7,1.8v0.2
				c0,1.3,1.1,2.3,2.4,2.3h3.5h8.8h3.5c1.3,0,2.4-1,2.4-2.3v-0.2c0.9,0,1.7-0.8,1.7-1.8c0-0.8-0.5-1.5-1.3-1.7
				C87.3,80.5,87.8,79.8,87.8,79z"/>
		</g>
		<line fill="none" stroke="#FFFFFF" stroke-width="3" stroke-miterlimit="10" x1="64.9" y1="79.6" x2="75.3" y2="79.6"/>
	</g>
</g>
</svg>
