<?xml version="1.0" encoding="utf-8"?>
<!-- Generator: Adobe Illustrator 20.1.0, SVG Export Plug-In . SVG Version: 6.00 Build 0)  -->
<svg version="1.1" id="Слой_1" xmlns="http://www.w3.org/2000/svg" xmlns:xlink="http://www.w3.org/1999/xlink" x="0px" y="0px"
	 viewBox="0 0 88.4 96.1" enable-background="new 0 0 88.4 96.1" xml:space="preserve">
<g>
	<g>
		<g>
			<path fill="none" stroke="#4B4F58" stroke-width="3" stroke-linecap="round" stroke-linejoin="round" stroke-miterlimit="10" d="
				M76.7,2.8v4.9h7.3V2.8c0-0.3-0.4-0.6-0.8-0.6h-5.7C77,2.2,76.7,2.5,76.7,2.8z"/>
			
				<polyline fill="none" stroke="#4B4F58" stroke-width="3" stroke-linecap="round" stroke-linejoin="round" stroke-miterlimit="10" points="
				83.9,81.5 83.9,7.7 76.7,7.7 76.7,81.5 			"/>
		</g>
		<path fill="none" stroke="#4B4F58" stroke-width="3" stroke-linecap="round" stroke-linejoin="round" stroke-miterlimit="10" d="
			M80.3,80.8c-1.3,0-2.5,0.2-3.6,0.5l3.6,9.4l3.6-9.4C82.8,81,81.6,80.8,80.3,80.8z"/>
		<g>
			
				<rect x="76.6" y="7.5" fill="none" stroke="#4B4F58" stroke-width="3" stroke-linecap="round" stroke-linejoin="round" stroke-miterlimit="10" width="7.4" height="6.3"/>
		</g>
		<path fill="none" stroke="#4B4F58" stroke-width="3" stroke-miterlimit="10" d="M81.5,87.7c-0.4,0-0.7-0.1-1.1-0.1
			c-0.4,0-0.8,0-1.3,0.1l1.2,3.1L81.5,87.7z"/>
	</g>
	<polygon fill="none" stroke="#4B4F58" stroke-width="3" stroke-miterlimit="10" points="65,90.3 65,44.4 65,21.4 48.6,4.9 2.6,4.9 
		2.6,22 2.6,44.4 2.6,90.3 	"/>
	<g>
		<polygon fill="none" stroke="#4B4F58" stroke-width="3" stroke-linejoin="bevel" points="48.6,21.4 65,21.4 48.6,4.9 		"/>
	</g>
	<line fill="none" stroke="#4B4F58" stroke-width="3" stroke-miterlimit="10" x1="21.1" y1="32.3" x2="56.9" y2="32.3"/>
	<line fill="none" stroke="#4B4F58" stroke-width="3" stroke-miterlimit="10" x1="21.1" y1="38.2" x2="49.2" y2="38.2"/>
	<line fill="none" stroke="#4B4F58" stroke-width="3" stroke-miterlimit="10" x1="21.1" y1="47.3" x2="56.9" y2="47.3"/>
	<line fill="none" stroke="#4B4F58" stroke-width="3" stroke-miterlimit="10" x1="21.1" y1="53.2" x2="49.2" y2="53.2"/>
	<line fill="none" stroke="#4B4F58" stroke-width="3" stroke-miterlimit="10" x1="21.1" y1="62.3" x2="56.9" y2="62.3"/>
	<line fill="none" stroke="#4B4F58" stroke-width="3" stroke-miterlimit="10" x1="21.1" y1="68.2" x2="49.2" y2="68.2"/>
	<rect x="11.1" y="62.3" fill="none" stroke="#4B4F58" stroke-width="3" stroke-miterlimit="10" width="5.9" height="5.9"/>
	<polyline fill="none" stroke="#4B4F58" stroke-width="3" points="18,30.4 13.4,36.2 11.3,34.3 	"/>
	<polyline fill="none" stroke="#4B4F58" stroke-width="3" points="18,45.6 13.4,51.4 11.3,49.5 	"/>
</g>
</svg>
