<?xml version="1.0" encoding="utf-8"?>
<!-- Generator: Adobe Illustrator 20.1.0, SVG Export Plug-In . SVG Version: 6.00 Build 0)  -->
<svg version="1.1" id="Слой_1" xmlns="http://www.w3.org/2000/svg" xmlns:xlink="http://www.w3.org/1999/xlink" x="0px" y="0px"
	 viewBox="0 0 98.5 88.5" enable-background="new 0 0 98.5 88.5" xml:space="preserve">
<g>
	<polyline fill="none" stroke="#974D5C" stroke-width="3" stroke-miterlimit="10" points="36.5,74.4 1.5,74.4 1.5,2 96,2 96,74.4 
		83.5,74.4 	"/>
	<rect x="1.5" y="2" fill="none" stroke="#974D5C" stroke-width="3" stroke-miterlimit="10" width="94.5" height="9.1"/>
	<line fill="none" stroke="#974D5C" stroke-width="3" stroke-miterlimit="10" x1="4.9" y1="6.4" x2="7.9" y2="6.4"/>
	<line fill="none" stroke="#974D5C" stroke-width="3" stroke-miterlimit="10" x1="10" y1="6.4" x2="13" y2="6.4"/>
	<line fill="none" stroke="#974D5C" stroke-width="3" stroke-miterlimit="10" x1="15.2" y1="6.4" x2="18.1" y2="6.4"/>
	<path fill="none" stroke="#974D5C" stroke-width="3" stroke-miterlimit="10" d="M87.7,62.6l0-7.6l-4.5-1c-0.2-0.9-0.5-1.8-0.8-2.7
		l3.4-3.1l-3.8-6.6l-4.7,1.5c-0.6-0.6-1.2-1.2-1.9-1.8l1.5-4.6L70.2,33l-3.3,3.7c-0.8-0.3-1.6-0.5-2.5-0.6l-1-4.7h-7.6l-1,4.7
		c-0.9,0.2-1.8,0.4-2.6,0.7L49,33.3l-6.6,3.8l1.4,4.3c-0.8,0.7-1.5,1.4-2.2,2.1l-4.1-1.3l-3.8,6.6l3,2.7c-0.4,1.1-0.7,2.2-1,3.3
		l-3.7,0.8v7.6l3.6,0.8c0.2,1.3,0.5,2.5,0.9,3.7L34,70l3.8,6.6l3.2-1c0.9,1.1,1.9,2,2.9,2.9l-1,3l6.6,3.8l2.2-2.4
		c1.3,0.4,2.6,0.8,4,1l0.7,3.1l7.6,0l0.7-3.3c1.3-0.3,2.6-0.7,3.8-1.2l2.2,2.5l6.6-3.8l-1.1-3.6c0.9-0.8,1.7-1.7,2.5-2.7l3.5,1.1
		l3.8-6.6l-3.1-2.8c0.3-1,0.5-2.1,0.7-3.2L87.7,62.6z M70,59.8c0,5.8-4.7,10.4-10.4,10.4c-5.8,0-10.4-4.7-10.4-10.4
		c0-5.8,4.7-10.4,10.4-10.4C65.3,49.4,70,54.1,70,59.8z"/>
	<path fill="none" stroke="#974D5C" stroke-width="3" stroke-linecap="round" stroke-linejoin="bevel" stroke-miterlimit="10" d="
		M35.7,35.3l0-5.2L31.1,29l2.6-4.2L30,21.2L26,23.7l-1.1-4.8h-5.2l-1.1,4.6l-4.2-2.6l-3.7,3.7l2.5,4.1l-4.8,1.1v5.2L13,36l-2.6,4.2
		l3.7,3.7l4.1-2.5l1.1,4.8h5.2l1.1-4.6l4.2,2.6l3.7-3.7l-2.5-4.1L35.7,35.3z M22,36.6c-2.2,0-4.1-1.8-4.1-4.1c0-2.2,1.8-4.1,4.1-4.1
		c2.2,0,4.1,1.8,4.1,4.1C26.1,34.7,24.3,36.6,22,36.6z"/>
</g>
</svg>
