<?xml version="1.0" standalone="no"?>
<!DOCTYPE svg PUBLIC "-//W3C//DTD SVG 20010904//EN"
 "http://www.w3.org/TR/2001/REC-SVG-20010904/DTD/svg10.dtd">
<svg version="1.0" xmlns="http://www.w3.org/2000/svg"
 width="16.000000pt" height="16.000000pt" viewBox="0 0 16.000000 16.000000"
 preserveAspectRatio="xMidYMid meet">
<metadata>
Created by potrace 1.11, written by Peter Selinger 2001-2013
</metadata>
<g transform="translate(0.000000,16.000000) scale(0.006154,-0.006154)"
fill="#000000" stroke="none">
<path d="M464 2531 c-11 -11 -2 -22 18 -19 11 2 23 -3 26 -11 3 -10 -2 -11
-19 -6 -18 5 -20 4 -9 -4 8 -6 15 -14 16 -18 2 -19 17 -43 27 -43 6 0 4 8 -4
18 -8 10 -4 8 7 -4 12 -13 24 -20 27 -18 3 3 8 -4 12 -15 3 -12 11 -19 16 -16
5 4 9 -1 9 -9 0 -9 6 -16 14 -16 8 0 23 -11 34 -25 11 -13 23 -21 28 -17 5 4
2 -1 -5 -10 -11 -15 -10 -17 9 -13 17 3 20 0 16 -12 -5 -13 -4 -13 7 -4 12 9
14 7 12 -13 -2 -17 1 -23 10 -20 7 3 16 0 20 -5 3 -6 11 -8 17 -5 6 4 5 -3 -2
-16 -11 -20 -10 -21 10 -10 20 11 21 10 15 -12 -7 -21 -7 -22 10 -8 11 8 16
11 13 5 -7 -12 17 -37 26 -28 3 4 6 1 6 -5 0 -7 -5 -12 -12 -12 -6 0 -8 -3 -5
-6 4 -4 13 -2 20 4 10 9 14 8 14 -3 0 -8 -5 -15 -11 -15 -6 0 -4 -5 4 -10 13
-8 12 -11 -5 -25 -11 -9 -14 -14 -7 -10 6 3 12 1 12 -4 0 -10 -14 -15 -32 -12
-4 0 -5 -6 -2 -14 4 -10 0 -15 -11 -15 -9 0 -14 -4 -11 -8 2 -4 1 -14 -5 -22
-7 -13 -9 -13 -9 0 0 8 -12 -7 -25 -35 -14 -27 -23 -42 -20 -32 3 10 1 15 -5
12 -6 -3 -10 -13 -10 -21 0 -9 -8 -23 -18 -32 -9 -10 -13 -14 -8 -9 6 4 15 7
21 7 5 0 -3 -9 -18 -19 -16 -10 -28 -22 -27 -27 1 -4 -7 -11 -17 -15 -10 -4
-13 -8 -7 -8 7 -1 14 -8 18 -16 3 -8 2 -14 -2 -14 -18 3 -32 -2 -32 -12 0 -5
6 -7 13 -3 7 4 9 3 4 -2 -8 -9 -12 -10 -39 -13 -8 -1 -9 -4 -3 -9 14 -10 18
-35 4 -26 -8 4 -9 0 -4 -15 7 -24 -4 -27 -25 -8 -8 6 -6 1 5 -12 11 -14 14
-21 8 -17 -7 4 -13 2 -13 -4 0 -6 -4 -8 -10 -5 -5 3 -10 1 -10 -4 0 -6 5 -11
11 -11 5 0 7 -5 4 -10 -4 -6 -10 -8 -15 -5 -4 3 -6 -5 -2 -17 3 -14 1 -19 -6
-14 -8 5 -10 2 -6 -8 3 -9 11 -13 18 -9 7 4 7 1 -1 -9 -7 -8 -9 -19 -5 -24 4
-4 0 -3 -10 4 -12 10 -18 10 -24 1 -4 -8 -3 -9 4 -5 7 4 12 1 12 -8 0 -8 -5
-18 -12 -22 -7 -4 -8 -3 -4 4 5 8 2 10 -8 6 -14 -5 -14 -8 -1 -21 17 -17 20
-27 5 -18 -6 4 -8 -7 -4 -30 3 -24 2 -35 -5 -31 -5 4 -13 1 -17 -5 -4 -7 -3
-10 2 -7 5 3 14 0 21 -7 9 -10 5 -16 -20 -29 -18 -8 -25 -16 -16 -16 9 0 19
-7 23 -15 4 -12 2 -13 -13 -6 -13 7 -18 6 -18 -4 0 -8 5 -11 11 -8 6 4 5 0 -2
-9 -10 -12 -13 -45 -11 -115 3 -117 5 -123 33 -123 19 -1 19 -2 4 -11 -10 -5
-18 -15 -18 -22 0 -7 4 -6 10 3 8 13 11 13 22 1 10 -10 10 -12 1 -7 -7 4 -13
4 -14 -1 0 -4 -2 -18 -3 -31 -2 -12 2 -22 7 -22 5 0 6 -7 3 -16 -5 -12 -2 -15
10 -10 15 6 15 4 3 -10 -12 -15 -11 -16 9 -10 16 5 24 3 28 -9 5 -12 12 -6 27
24 11 22 24 38 29 35 5 -3 7 0 6 8 -2 7 3 12 10 10 10 -2 10 2 3 17 -8 14 -7
22 5 31 8 7 13 18 11 24 -2 6 3 17 12 24 14 12 14 13 1 9 -10 -3 -16 2 -16 13
0 15 4 17 21 8 19 -10 19 -10 5 7 -14 17 -13 18 4 12 17 -7 17 -6 5 10 -12 15
-12 16 4 10 15 -6 16 -4 6 14 -6 12 -7 19 -1 15 15 -9 22 20 9 34 -9 10 -9 12
4 7 9 -3 16 0 16 9 0 7 -5 10 -10 7 -6 -4 -7 -1 -3 6 5 7 15 10 23 7 8 -3 12
-2 8 3 -3 5 -2 11 2 14 5 2 1 2 -7 0 -10 -2 -8 2 4 12 11 8 14 15 8 15 -9 0
-10 5 -3 19 6 10 7 21 3 25 -3 4 1 4 11 0 12 -4 17 -1 17 11 0 10 -5 13 -12 9
-6 -4 -8 -3 -4 4 3 6 15 9 26 7 17 -3 19 -1 10 16 -8 14 -7 19 1 19 7 0 9 9 6
21 -5 17 -3 18 11 7 12 -10 14 -10 8 0 -4 7 -2 12 4 12 6 0 8 5 5 10 -3 6 2
10 12 10 15 0 15 2 4 9 -8 5 -16 17 -17 25 -1 9 2 14 7 10 5 -3 6 -10 3 -16
-5 -7 -2 -8 5 -4 7 5 10 15 7 23 -4 9 1 17 14 20 11 3 21 10 22 17 0 6 2 16 3
21 2 6 3 18 4 27 1 11 6 15 16 12 11 -4 13 -2 9 9 -3 8 0 18 7 23 8 5 10 3 4
-6 -5 -9 -4 -11 4 -6 9 6 9 11 -1 24 -8 10 -9 13 -1 9 7 -4 14 1 18 14 5 14
12 18 23 14 9 -3 13 -3 9 1 -4 4 -1 14 6 22 8 11 8 14 0 9 -7 -4 -10 -1 -9 10
2 9 9 19 17 21 11 3 11 1 -1 -7 -10 -8 -11 -11 -2 -11 7 0 16 10 21 23 20 49
24 62 22 72 -1 5 7 1 19 -10 11 -10 27 -20 35 -21 16 -2 51 -34 38 -34 -5 0
-13 3 -19 8 -5 4 8 -9 30 -29 28 -26 35 -38 25 -42 -11 -4 -11 -6 -1 -6 8 -1
10 -6 6 -13 -5 -8 0 -7 11 2 11 9 16 10 11 3 -4 -7 -3 -13 2 -13 5 0 14 -12
20 -26 7 -14 8 -23 3 -19 -5 3 -13 0 -17 -6 -5 -8 -3 -9 6 -4 10 6 12 4 6 -11
-6 -15 -5 -16 5 -7 10 10 15 8 24 -10 6 -12 16 -21 22 -20 9 2 13 -11 14 -50
0 -12 5 -17 14 -13 10 3 12 0 8 -11 -5 -11 -3 -14 6 -8 10 6 11 3 2 -13 -7
-14 -8 -23 -1 -27 6 -4 7 -12 4 -18 -4 -7 -4 -9 1 -5 4 4 15 -1 24 -10 10 -11
12 -12 6 -2 -9 13 -8 13 7 1 14 -10 15 -18 7 -32 -7 -14 -7 -19 3 -17 11 3 14
-2 17 -37 0 -8 11 -15 24 -16 21 0 21 -1 2 -9 -17 -7 -18 -9 -4 -14 10 -4 15
-17 14 -31 -2 -14 3 -26 12 -29 12 -5 13 -9 3 -21 -14 -17 0 -21 16 -5 6 6 10
3 11 -10 1 -11 -2 -18 -6 -16 -4 3 -8 -1 -8 -9 0 -8 5 -11 10 -8 6 4 8 -3 5
-15 -4 -12 -3 -20 2 -17 14 9 40 -41 28 -53 -8 -8 -7 -13 5 -18 9 -3 17 -10
17 -16 0 -5 -4 -6 -10 -3 -6 3 -7 -1 -4 -9 3 -9 11 -13 18 -9 6 4 5 -1 -3 -10
-9 -12 -10 -17 -2 -17 7 0 9 -4 6 -10 -6 -10 9 -15 30 -10 6 1 5 -4 -2 -11 -7
-7 -9 -18 -4 -28 5 -9 7 -23 6 -32 -2 -9 4 -16 13 -16 17 0 52 32 52 48 0 5 5
7 12 3 8 -5 9 -2 5 9 -4 10 1 22 14 31 15 10 17 15 7 18 -11 4 -11 8 0 20 10
13 10 17 0 22 -11 5 -11 7 0 12 10 4 10 9 2 20 -9 10 -8 18 3 34 16 23 13 80
-5 91 -5 3 -2 9 7 12 9 4 13 3 10 -2 -3 -5 -1 -12 4 -15 5 -4 8 2 7 11 -2 10
-8 18 -14 18 -6 0 -14 3 -18 8 -4 4 0 7 9 7 9 0 19 5 23 12 4 7 3 8 -4 4 -8
-5 -12 0 -12 13 0 10 -6 22 -12 24 -10 4 -10 6 0 6 6 1 12 6 12 12 0 5 -4 8
-9 5 -11 -7 -9 13 2 32 5 7 4 12 -2 12 -6 0 -11 5 -11 11 0 5 4 8 9 5 10 -7 9
20 -2 30 -4 4 -2 13 4 21 11 13 10 14 -13 17 -6 0 -13 7 -16 14 -2 8 2 10 14
5 16 -6 17 -5 4 9 -9 9 -19 12 -25 8 -7 -6 -11 -2 -11 10 0 10 4 16 8 14 4 -3
8 -1 8 5 0 5 -4 11 -9 13 -5 2 -11 22 -13 45 -3 23 -10 48 -16 56 -7 7 -9 17
-5 20 3 4 3 7 -1 7 -3 0 -10 -10 -15 -22 l-8 -22 -5 22 c-4 12 -3 20 2 17 4
-3 11 2 14 11 3 8 2 12 -3 9 -5 -3 -12 -1 -15 4 -4 5 -2 12 3 16 6 3 7 13 4
21 -4 11 -13 14 -32 9 -14 -3 -21 -2 -14 2 6 5 10 20 10 34 -2 20 -7 26 -19
24 -10 -2 -17 -1 -16 3 3 16 -15 41 -25 35 -6 -3 -7 -1 -3 6 4 6 13 9 19 5 7
-3 1 4 -12 15 -21 19 -21 21 -5 22 16 0 16 1 -3 9 -12 5 -24 18 -28 29 -3 12
-11 18 -17 15 -6 -4 -8 2 -3 17 7 23 7 24 -9 4 -15 -20 -15 -20 -11 3 2 14 -1
22 -11 22 -8 0 -14 5 -14 11 0 5 -4 8 -8 5 -4 -3 -8 5 -8 17 1 12 -3 23 -8 24
-5 1 -16 13 -26 27 -9 15 -21 23 -25 19 -5 -5 -3 1 5 11 14 18 13 19 -2 13
-10 -3 -18 -4 -18 -1 0 6 53 28 63 25 5 -1 6 3 2 9 -4 7 -13 7 -28 -1 -21 -10
-21 -10 -2 6 11 8 26 13 34 10 11 -5 12 -3 1 10 -11 13 -10 14 5 9 14 -6 16
-4 10 6 -6 10 -4 12 7 7 22 -8 30 3 15 21 -9 13 -9 14 1 8 6 -4 12 -2 12 3 0
6 6 11 14 11 8 0 18 5 22 12 5 7 2 8 -7 3 -11 -6 -12 -5 -2 5 7 7 20 14 30 15
10 0 20 5 22 10 2 6 11 16 20 23 9 8 10 10 2 6 -9 -4 -12 -3 -7 4 3 6 15 9 26
7 14 -3 17 1 13 12 -5 12 -3 14 7 8 10 -6 12 -4 7 8 -4 11 -1 15 13 12 14 -3
17 1 13 12 -5 12 -2 15 10 10 16 -6 22 3 18 26 -1 5 3 6 9 2 5 -3 10 -1 10 6
0 9 3 9 14 0 12 -10 14 -9 12 6 -2 10 4 23 13 30 11 9 12 12 3 13 -7 0 -10 5
-7 10 3 6 1 10 -5 10 -6 0 -8 5 -5 10 4 6 11 8 16 5 5 -4 9 -2 9 3 0 5 -35 9
-77 8 -59 -1 -77 -5 -80 -16 -4 -13 -3 -13 6 0 8 11 11 12 11 2 0 -7 4 -11 8
-8 5 3 9 -1 9 -9 0 -10 -4 -12 -12 -5 -7 5 -15 7 -19 3 -9 -10 -37 -13 -32 -4
3 4 -5 6 -17 5 -12 -1 -26 -3 -30 -3 -5 -1 -5 -7 -2 -13 4 -7 -1 -4 -9 6 -16
19 -16 19 -17 -5 0 -13 -3 -18 -6 -11 -2 6 -12 12 -21 12 -13 0 -14 -2 -4 -9
10 -6 9 -11 -4 -22 -12 -9 -15 -10 -10 -1 4 6 2 12 -3 12 -6 0 -11 -4 -11 -10
0 -5 -11 -10 -25 -10 -13 0 -29 -8 -34 -17 -8 -14 -11 -15 -11 -3 -1 11 -3 10
-9 -3 -4 -10 -11 -19 -16 -19 -6 0 -16 -5 -23 -11 -10 -8 -16 -7 -21 2 -6 10
-10 9 -15 -4 -3 -9 -3 -22 1 -28 4 -7 -1 -6 -10 2 -15 12 -17 12 -12 0 5 -14
-3 -17 -52 -21 -7 -1 -10 -4 -8 -7 5 -9 -18 -37 -32 -36 -6 0 -15 4 -20 9 -5
5 -2 6 6 1 10 -6 12 -4 7 4 -6 9 -11 9 -23 -1 -14 -11 -15 -10 -9 10 4 12 4
22 -1 21 -21 -4 -44 2 -39 10 3 5 -1 12 -10 15 -10 4 -13 2 -9 -7 4 -6 0 -3
-9 7 -8 10 -13 23 -9 29 3 6 1 7 -6 3 -6 -4 -8 -13 -4 -19 4 -7 -5 -4 -20 6
-15 9 -27 15 -27 11 0 -4 -7 -1 -15 6 -12 10 -13 16 -3 29 7 9 8 13 4 9 -5 -4
-16 -2 -24 5 -11 8 -14 9 -9 0 5 -8 1 -11 -12 -10 -11 0 -17 5 -14 10 3 5 0 7
-8 5 -8 -3 -22 7 -31 21 -10 14 -18 21 -18 16 0 -6 5 -16 11 -22 8 -8 8 -13 0
-18 -6 -3 -10 -3 -9 2 2 4 -5 19 -15 33 -15 21 -17 22 -17 5 0 -14 -3 -16 -11
-8 -6 6 -18 9 -27 6 -9 -4 -13 -2 -9 4 3 5 0 10 -8 10 -8 0 -12 -3 -10 -7 2
-3 -6 -7 -18 -7 -18 -2 -19 0 -7 8 12 9 10 10 -8 6 -12 -3 -20 -1 -16 4 3 5 2
15 -2 21 -6 9 -10 5 -15 -12 -7 -23 -7 -24 -8 -3 -1 21 -5 22 -62 20 -33 -1
-63 -4 -65 -6z m646 -211 c-6 -11 -13 -20 -16 -20 -2 0 0 9 6 20 6 11 13 20
16 20 2 0 0 -9 -6 -20z m-28 -444 c7 4 8 2 4 -5 -9 -13 -26 -5 -25 12 0 9 2 8
6 -1 2 -6 10 -9 15 -6z m493 -216 c3 -5 1 -10 -4 -10 -6 0 -11 5 -11 10 0 6 2
10 4 10 3 0 8 -4 11 -10z m-260 -139 c-3 -6 3 -14 12 -20 10 -6 13 -11 7 -11
-15 0 -36 25 -27 33 10 10 15 8 8 -2z m332 -326 c0 -8 -4 -12 -9 -9 -5 3 -6
10 -3 15 9 13 12 11 12 -6z m-1154 -39 c4 -10 1 -13 -8 -9 -8 3 -12 9 -9 14 7
12 11 11 17 -5z m121 -94 c3 -5 -1 -9 -9 -9 -8 0 -12 4 -9 9 3 4 7 8 9 8 2 0
6 -4 9 -8z m943 -97 c0 -8 -4 -12 -9 -9 -5 3 -6 10 -3 15 9 13 12 11 12 -6z"/>
<path d="M875 2420 c3 -5 8 -10 11 -10 2 0 4 5 4 10 0 6 -5 10 -11 10 -5 0 -7
-4 -4 -10z"/>
<path d="M600 2356 c0 -2 7 -7 16 -10 8 -3 12 -2 9 4 -6 10 -25 14 -25 6z"/>
<path d="M1398 2243 c7 -3 16 -2 19 1 4 3 -2 6 -13 5 -11 0 -14 -3 -6 -6z"/>
<path d="M735 2009 c-4 -6 -5 -12 -2 -15 2 -3 7 2 10 11 7 17 1 20 -8 4z"/>
<path d="M1477 1849 c7 -7 15 -10 18 -7 3 3 -2 9 -12 12 -14 6 -15 5 -6 -5z"/>
<path d="M1253 1591 c0 -11 5 -18 9 -15 4 3 5 11 1 19 -7 21 -12 19 -10 -4z"/>
<path d="M2056 1591 c9 -9 34 -9 34 -1 0 5 -9 8 -20 7 -10 -1 -17 -3 -14 -6z"/>
<path d="M2108 1584 c-4 -3 -12 -7 -20 -8 -28 -6 -47 -18 -53 -34 -5 -14 -4
-15 6 -4 21 19 31 14 12 -6 -10 -11 -21 -17 -25 -15 -4 2 -9 -1 -13 -7 -3 -5
-1 -10 5 -10 6 0 8 -5 5 -10 -4 -6 -11 -8 -16 -5 -13 9 -11 -9 3 -23 9 -9 9
-12 -1 -12 -7 0 -10 -4 -7 -9 3 -5 -1 -12 -10 -15 -9 -4 -14 -9 -10 -13 3 -3
-2 -15 -11 -25 -18 -20 -27 -52 -12 -42 5 3 9 1 9 -5 0 -5 -5 -11 -10 -13 -6
-2 -12 -13 -15 -26 -2 -15 0 -20 7 -16 7 5 8 2 4 -5 -5 -7 -15 -10 -23 -6 -13
4 -14 3 -3 -10 11 -13 10 -14 -6 -9 -10 4 -16 4 -12 -1 4 -4 3 -14 -3 -21 -7
-8 -6 -14 2 -20 8 -5 9 -3 4 6 -5 9 -4 11 4 6 8 -6 9 -12 2 -20 -6 -7 -7 -17
-3 -21 4 -5 1 -5 -5 -1 -8 4 -13 2 -13 -5 0 -8 -5 -7 -17 2 -16 13 -17 12 -4
-4 8 -9 12 -19 10 -21 -2 -2 -13 -9 -24 -15 -15 -9 -16 -11 -2 -7 9 3 17 1 17
-4 0 -6 -4 -10 -10 -10 -5 0 -10 -5 -10 -11 0 -5 6 -7 13 -3 8 5 8 3 -2 -9 -7
-9 -18 -14 -24 -10 -5 3 -7 2 -4 -4 8 -13 -39 -112 -57 -119 -8 -3 -17 -13
-20 -21 -6 -13 -4 -14 9 -3 14 12 15 11 4 -13 -7 -15 -18 -27 -25 -27 -7 0
-16 -5 -20 -12 -5 -7 -2 -9 7 -4 8 4 3 -2 -11 -14 -14 -12 -19 -19 -13 -15 9
4 11 1 7 -10 -4 -9 -12 -14 -18 -12 -7 3 -13 -6 -14 -21 -3 -32 -21 -54 -40
-47 -12 4 -13 3 -2 -10 10 -12 10 -15 -5 -15 -10 0 -15 -5 -12 -13 3 -8 1 -20
-5 -28 -8 -11 -8 -9 -4 5 7 19 6 20 -14 1 -11 -10 -19 -24 -16 -30 6 -16 -35
-14 -51 2 -15 14 -17 27 -3 18 6 -3 10 -2 10 4 0 5 -10 11 -22 13 -16 2 -22 9
-20 22 2 11 -1 15 -7 11 -7 -4 -11 4 -11 20 0 15 -4 24 -10 20 -5 -3 -10 -1
-10 5 0 6 -5 8 -12 4 -8 -5 -9 -2 -5 9 3 9 2 19 -4 23 -6 3 -8 12 -5 19 7 20
-5 26 -22 12 -13 -9 -14 -9 -8 1 4 6 3 12 -3 12 -6 0 -8 7 -5 15 4 8 1 15 -5
15 -6 0 -11 8 -11 18 0 15 2 15 11 2 9 -13 10 -13 6 0 -2 8 -12 14 -21 12 -9
-2 -15 1 -14 7 2 5 -5 16 -16 24 -15 11 -16 18 -8 34 12 21 7 33 -12 33 -6 0
-4 -5 4 -11 13 -9 13 -10 0 -6 -8 2 -14 11 -12 21 2 9 -4 16 -11 16 -10 0 -14
9 -12 29 2 22 -3 31 -16 34 -11 3 -19 13 -19 22 0 10 -5 13 -12 9 -9 -5 -9 -2
1 9 10 13 10 17 1 17 -9 0 -9 4 1 17 8 9 9 14 3 10 -7 -4 -15 0 -18 9 -4 10
-2 13 7 8 9 -5 8 -3 -1 7 -11 11 -14 12 -21 1 -7 -11 -10 -10 -14 3 -4 9 -3
13 3 10 6 -3 10 -2 10 3 0 6 -7 13 -16 16 -12 5 -13 10 -5 19 8 10 7 17 -2 27
-10 10 -9 11 3 5 12 -7 13 -6 3 7 -7 8 -9 19 -5 24 4 5 -3 0 -15 -10 -13 -11
-23 -14 -23 -8 0 6 6 13 13 15 9 4 8 8 -3 16 -17 12 -20 31 -8 48 5 6 5 14 -1
18 -6 3 -16 15 -21 25 -9 16 -8 18 7 13 12 -5 11 -1 -5 15 -12 12 -22 27 -22
33 0 5 -6 7 -12 3 -9 -5 -9 -2 1 9 9 11 10 17 2 17 -6 0 -11 5 -11 11 0 5 6 7
13 3 7 -5 7 -1 -2 10 -9 11 -24 16 -38 13 -12 -2 -20 0 -17 4 10 16 -6 9 -26
-11 -11 -11 -17 -20 -12 -20 4 0 0 -5 -8 -10 -13 -9 -13 -11 0 -20 10 -6 11
-10 3 -10 -7 0 -13 -7 -13 -16 0 -9 -5 -12 -12 -8 -7 4 -8 3 -4 -4 4 -6 12
-10 19 -8 7 1 9 1 4 -1 -4 -3 -5 -9 -2 -14 4 -5 -2 -6 -12 -2 -14 5 -16 3 -6
-7 14 -16 -4 -63 -21 -53 -6 4 -5 -1 3 -11 9 -10 11 -20 5 -24 -5 -4 -10 -15
-12 -26 -2 -13 1 -16 10 -10 10 6 10 4 2 -7 -15 -20 -15 -59 -1 -59 7 0 6 -4
-3 -10 -11 -7 -11 -10 -2 -10 7 0 10 -5 7 -10 -4 -6 -1 -18 7 -27 11 -14 11
-16 -1 -9 -9 6 -12 5 -9 -5 3 -8 10 -13 15 -12 5 1 10 -5 10 -12 0 -11 -4 -12
-13 -4 -9 7 -14 6 -20 -3 -4 -7 -4 -10 1 -6 4 4 14 0 22 -8 8 -8 19 -11 25 -8
7 4 8 2 4 -5 -4 -6 -11 -9 -15 -7 -4 3 -7 -5 -6 -16 1 -12 7 -24 13 -26 7 -2
12 -8 12 -13 0 -6 -4 -8 -8 -5 -4 2 -8 -4 -8 -15 0 -10 4 -19 8 -19 4 0 5 -7
2 -15 -4 -8 -2 -15 4 -15 6 0 8 -9 5 -20 -4 -16 0 -20 18 -20 21 -1 22 -2 6
-11 -18 -11 -14 -29 6 -29 7 0 6 4 -3 10 -8 5 -10 10 -4 10 19 0 23 -11 14
-36 -7 -17 -5 -27 6 -39 9 -8 12 -15 7 -16 -4 0 2 -4 14 -9 16 -7 20 -14 16
-31 -5 -17 -3 -20 8 -14 11 7 11 5 -1 -10 -9 -11 -10 -16 -2 -11 8 5 12 1 12
-13 0 -11 5 -23 12 -27 7 -5 8 -3 3 7 -7 11 -5 11 9 -1 11 -8 14 -16 7 -18 -6
-2 -11 -8 -11 -13 0 -6 4 -8 9 -5 5 3 16 -10 25 -29 9 -19 19 -35 22 -35 3 0
2 5 -2 12 -4 6 -3 8 3 5 6 -4 8 -19 6 -34 -4 -23 -2 -25 7 -13 10 12 11 11 7
-8 -4 -18 -3 -21 7 -12 21 17 43 -15 25 -37 -8 -9 -9 -14 -4 -12 12 7 46 -27
37 -36 -4 -4 -2 -6 3 -5 21 5 36 0 30 -10 -3 -5 -1 -10 5 -10 6 0 8 -5 4 -12
-5 -7 -2 -9 9 -5 12 4 14 0 11 -19 -3 -19 -1 -24 8 -18 10 6 11 5 1 -8 -7 -8
-9 -19 -5 -24 4 -4 0 -3 -9 4 -14 11 -16 9 -11 -13 3 -20 1 -24 -12 -19 -10 4
-16 1 -16 -9 0 -9 -5 -19 -12 -23 -7 -4 -8 -3 -4 4 10 17 -3 15 -20 -2 -17
-17 -19 -30 -2 -20 7 5 8 3 4 -5 -5 -7 -10 -10 -14 -7 -3 3 -11 -2 -19 -12 -9
-10 -12 -11 -7 -2 5 10 0 9 -14 -4 -23 -20 -30 -32 -12 -21 6 3 10 1 10 -6 0
-6 -10 -9 -23 -7 -15 3 -24 0 -24 -8 0 -7 5 -10 10 -7 6 4 7 1 3 -6 -5 -7 -15
-10 -23 -7 -8 3 -11 1 -8 -4 3 -6 1 -10 -5 -10 -6 0 -9 -4 -6 -8 2 -4 -5 -14
-17 -22 -21 -12 -21 -12 -7 6 14 18 14 18 -3 5 -10 -8 -15 -21 -12 -30 3 -8 3
-12 0 -9 -4 4 -20 -9 -37 -27 -16 -19 -35 -32 -42 -29 -7 3 -19 -2 -26 -11 -7
-8 -10 -15 -6 -15 3 0 1 -11 -4 -25 -11 -29 -14 -28 81 -29 47 -1 66 2 66 11
0 9 -4 10 -12 3 -8 -7 -12 -5 -12 5 0 7 3 14 6 13 3 0 8 1 11 2 3 1 16 3 29 4
22 3 23 2 6 -11 -15 -10 -16 -15 -6 -26 7 -6 11 -8 10 -2 -4 12 23 55 33 55 4
0 4 -8 1 -18 -5 -14 -4 -15 8 -6 24 18 51 25 44 11 -4 -6 0 -4 8 5 8 10 27 19
42 20 15 2 32 10 38 20 10 15 12 15 24 0 12 -15 12 -15 6 2 -5 14 -3 17 7 11
8 -5 11 -4 7 2 -4 6 1 17 10 24 11 10 14 10 9 2 -5 -9 -2 -11 9 -7 9 4 14 13
11 20 -3 8 0 11 10 7 7 -3 14 -10 14 -17 0 -6 5 -3 11 7 5 9 8 21 5 26 -3 4 5
7 18 6 25 -3 47 6 49 21 1 5 5 8 9 7 5 -2 8 3 8 11 0 8 4 17 9 20 14 9 42 -5
35 -16 -4 -6 2 -7 16 -3 13 4 20 3 17 -2 -3 -5 -2 -15 4 -23 5 -10 9 -11 9 -3
0 7 7 10 15 7 8 -4 15 -12 15 -19 0 -8 9 -17 20 -20 11 -3 20 -11 20 -17 0 -7
4 -7 13 0 9 8 19 5 37 -10 l25 -20 -30 17 -30 17 25 -24 c19 -19 30 -23 47
-17 14 5 25 4 29 -3 4 -6 3 -8 -2 -5 -6 3 -16 1 -24 -4 -11 -6 -5 -8 17 -4 32
5 100 -24 87 -38 -3 -3 3 -3 15 0 14 3 21 1 21 -8 0 -11 2 -11 10 1 9 13 11
13 20 0 9 -13 10 -13 10 0 0 9 9 2 20 -15 l21 -30 -5 30 -6 30 12 -27 c11 -25
16 -28 62 -27 66 1 94 8 75 20 -8 4 -15 17 -15 28 -1 11 3 18 7 15 5 -3 6 2 3
10 -3 9 -11 13 -17 9 -6 -4 -8 0 -4 10 4 10 2 14 -7 11 -14 -5 -59 30 -49 40
3 3 -3 6 -15 6 -15 0 -20 5 -16 15 4 11 2 13 -9 9 -8 -3 -18 0 -22 5 -3 6 -11
8 -17 5 -7 -4 -8 -2 -4 5 6 9 12 9 24 -1 15 -12 16 -11 3 5 -8 10 -21 15 -29
12 -13 -5 -13 -3 -1 11 13 16 12 16 -7 6 -19 -10 -21 -9 -18 14 1 14 0 23 -3
20 -4 -3 -13 0 -22 6 -10 8 -8 3 4 -12 l20 -25 -29 25 c-58 50 -65 58 -53 64
7 4 2 4 -11 2 -20 -4 -21 -2 -10 12 11 14 10 15 -6 9 -14 -6 -17 -4 -12 9 5
14 4 15 -9 4 -13 -11 -14 -10 -10 2 4 9 -1 18 -10 22 -9 3 -13 10 -10 16 3 6
-1 7 -9 4 -9 -3 -16 -2 -16 4 0 5 7 12 15 16 8 3 15 9 14 13 -3 19 2 34 10 29
5 -3 11 1 14 9 4 9 1 13 -11 9 -9 -2 -3 2 14 10 32 15 49 40 38 57 -3 5 5 9
17 9 18 0 19 2 9 15 -11 13 -10 14 2 10 9 -4 18 1 22 10 4 11 2 14 -7 9 -6 -4
-3 2 8 13 11 11 22 19 25 18 3 -2 12 4 20 13 13 14 12 15 -3 9 -16 -6 -16 -5
-1 26 9 17 28 41 41 52 19 17 21 23 11 34 -11 12 -10 13 5 8 10 -4 15 -3 12 2
-3 5 -1 12 5 16 6 4 7 11 4 17 -4 6 -2 8 3 5 6 -4 14 0 17 9 4 10 2 13 -7 8
-8 -5 -7 -2 2 9 7 9 10 17 5 17 -5 0 -1 5 9 11 9 5 17 15 17 22 0 7 -4 6 -10
-3 -6 -9 -10 -10 -10 -3 0 7 9 17 20 23 15 8 20 19 18 42 -2 19 3 33 10 36 9
3 8 8 -5 18 -17 13 -17 14 2 7 18 -6 19 -5 5 12 -9 11 -10 16 -2 11 11 -7 17
5 13 28 -1 5 6 3 15 -5 16 -13 16 -12 5 9 -8 15 -8 22 -1 22 6 0 8 5 4 12 -15
23 -11 46 5 40 13 -5 14 -3 4 9 -9 11 -9 19 -2 26 8 8 8 13 0 17 -6 4 -11 12
-11 17 0 6 5 7 11 3 8 -4 9 1 4 16 -5 15 -2 25 6 31 11 7 11 9 -2 9 -9 0 -16
7 -16 15 0 8 4 15 9 15 4 0 8 -5 8 -12 0 -6 3 -8 7 -4 5 4 1 13 -7 19 -8 7
-16 21 -17 32 -1 20 -1 20 13 1 8 -11 14 -15 14 -9 0 7 -7 18 -15 27 -16 16
-20 31 -7 22 5 -3 9 1 9 9 0 8 -4 12 -9 9 -4 -3 -8 0 -8 5 0 6 6 11 13 11 8 0
7 4 -3 10 -13 9 -13 11 0 20 9 6 10 10 3 10 -8 0 -11 13 -9 35 3 30 2 34 -10
24 -14 -11 -20 1 -7 15 11 10 12 37 2 30 -5 -3 -7 -10 -4 -15 3 -5 -1 -6 -9
-3 -9 3 -12 12 -9 21 5 12 3 14 -6 8 -10 -6 -11 -3 -2 14 11 20 11 27 -1 15z
m-981 -116 c-3 -8 -6 -5 -6 6 -1 11 2 17 5 13 3 -3 4 -12 1 -19z m866 -88
c-10 -11 -21 -20 -25 -20 -4 0 0 9 9 20 10 11 21 20 25 20 4 0 0 -9 -9 -20z
m-123 -854 c0 -2 -8 -10 -17 -17 -16 -13 -17 -12 -4 4 13 16 21 21 21 13z
m-540 -434 c0 -4 -10 -9 -22 -9 -18 -2 -20 0 -8 7 18 12 30 13 30 2z m-315
-33 c-3 -12 -7 -24 -10 -27 -3 -3 -3 5 -1 19 6 30 5 29 10 29 3 0 3 -10 1 -21z"/>
<path d="M976 1414 c-5 -14 -4 -15 9 -4 17 14 19 20 6 20 -5 0 -12 -7 -15 -16z"/>
<path d="M1173 1375 c0 -8 4 -12 9 -9 5 3 6 10 3 15 -9 13 -12 11 -12 -6z"/>
<path d="M1453 1157 c0 -8 6 -14 14 -14 9 0 10 4 2 14 -6 7 -12 13 -14 13 -1
0 -2 -6 -2 -13z"/>
<path d="M1649 1143 c-13 -16 -12 -17 4 -4 9 7 17 15 17 17 0 8 -8 3 -21 -13z"/>
<path d="M635 1080 c-3 -5 -1 -10 4 -10 6 0 11 5 11 10 0 6 -2 10 -4 10 -3 0
-8 -4 -11 -10z"/>
<path d="M1820 1060 c-9 -6 -10 -10 -3 -10 6 0 15 5 18 10 8 12 4 12 -15 0z"/>
<path d="M1625 1021 c-3 -5 -2 -12 3 -15 5 -3 9 1 9 9 0 17 -3 19 -12 6z"/>
<path d="M593 991 c-9 -15 -9 -20 0 -24 7 -3 13 5 13 19 2 29 2 29 -13 5z"/>
<path d="M1790 995 c-7 -9 -11 -17 -9 -20 3 -2 10 5 17 15 14 24 10 26 -8 5z"/>
<path d="M1350 980 c0 -5 5 -10 11 -10 5 0 7 5 4 10 -3 6 -8 10 -11 10 -2 0
-4 -4 -4 -10z"/>
<path d="M1518 723 c7 -3 16 -2 19 1 4 3 -2 6 -13 5 -11 0 -14 -3 -6 -6z"/>
<path d="M1980 680 c-6 -11 -9 -20 -8 -20 2 0 11 9 21 20 9 11 13 20 7 20 -5
0 -14 -9 -20 -20z"/>
<path d="M1166 667 c3 -10 9 -15 12 -12 3 3 0 11 -7 18 -10 9 -11 8 -5 -6z"/>
<path d="M1243 565 c0 -8 4 -15 9 -15 4 0 8 4 8 9 0 6 -4 12 -8 15 -5 3 -9 -1
-9 -9z"/>
<path d="M1910 290 c0 -5 5 -10 11 -10 5 0 7 5 4 10 -3 6 -8 10 -11 10 -2 0
-4 -4 -4 -10z"/>
<path d="M1042 115 c-7 -8 -9 -15 -4 -15 5 0 15 7 22 15 16 19 -1 19 -18 0z"/>
<path d="M1850 71 c0 -5 5 -13 10 -16 6 -3 10 -2 10 4 0 5 -4 13 -10 16 -5 3
-10 2 -10 -4z"/>
<path d="M2150 39 c0 -5 5 -7 10 -4 6 3 10 8 10 11 0 2 -4 4 -10 4 -5 0 -10
-5 -10 -11z"/>
</g>
</svg>
